<svg xmlns="http://www.w3.org/2000/svg" xml:space="preserve" width="800" height="800" viewBox="0 0 512 512"><path d="M448.869 209.382c0-65.089-52.975-118.033-118.077-118.033-13.838 0-27.041 2.521-39.393 6.904 69.695 35.562 117.653 107.867 117.653 191.32 0 2.818-.317 5.555-.428 8.342 24.605-21.658 40.245-53.275 40.245-88.533z"/><path d="M330.792 40.022c-40.055 0-76.789 13.979-105.778 37.207 16.042 2.327 31.493 6.379 46.187 12.047 17.985-8.961 38.172-14.137 59.592-14.137 74.033 0 134.291 60.227 134.291 134.242 0 45.913-23.21 86.475-58.455 110.685-2.296 16.021-6.316 31.458-11.95 46.134 61.87-25.221 105.521-85.875 105.521-156.818-.001-93.553-75.837-169.36-169.408-169.36z"/><path d="M194.19 107.184c-100.726 0-182.39 81.634-182.39 182.39 0 100.771 81.664 182.404 182.39 182.404 100.774 0 182.435-81.634 182.435-182.404 0-100.757-81.66-182.39-182.435-182.39zm0 326.352c-79.367 0-143.949-64.582-143.949-143.963 0-79.367 64.582-143.949 143.949-143.949 79.398 0 143.994 64.582 143.994 143.949.001 79.381-64.595 143.963-143.994 143.963z"/><path d="M194.19 161.839c-70.423 0-127.735 57.295-127.735 127.734 0 70.438 57.313 127.75 127.735 127.75 70.454 0 127.785-57.313 127.785-127.75.001-70.439-57.33-127.734-127.785-127.734zm9.453 196.558v11.938c0 6.077-4.942 11.015-11.034 11.015-6.066 0-10.99-4.924-10.99-10.985v-10.386c-9.562-.428-18.951-2.217-26.723-4.717-6.635-2.156-10.466-9.104-8.725-15.865l.428-1.662a12.102 12.102 0 0 1 6-7.618 12.075 12.075 0 0 1 9.676-.71c7.473 2.646 16.082 4.479 25.221 4.479 12.774 0 21.548-4.955 21.548-13.948 0-8.535-7.159-13.93-23.827-19.568-24.052-8.12-40.469-19.33-40.469-41.147 0-19.794 13.948-35.306 37.995-40.059v-10.337c0-6.098 4.925-11.021 11.004-11.021 6.097 0 11.021 4.941 11.021 11.021v8.754c8.155.379 14.852 1.473 20.472 2.963 6.887 1.834 11.004 8.883 9.245 15.786l-.208.819a12.205 12.205 0 0 1-5.854 7.601 12.219 12.219 0 0 1-9.531 1.045c-5.387-1.662-12.127-3.007-20.41-3.007-14.614 0-19.361 6.317-19.361 12.604 0 7.424 7.882 12.141 27.04 19.33 26.724 9.452 37.537 21.817 37.537 42.1-.002 19.995-14.17 37.061-40.055 41.575z"/></svg>