<svg xmlns="http://www.w3.org/2000/svg" xml:space="preserve" width="800" height="800" viewBox="0 0 54.221 54.221"><path d="m53.529 29.03-4.505-7.908a3.443 3.443 0 0 0-4.718-1.278l-4.473 2.582a3.413 3.413 0 0 0-1.233 4.712l3.027 5.104c.438.743 1.05 1.679 1.737 2.563h-2.791c-1.914 0-3.467-1.387-3.467-3.098 0-1.71-.7-1.713-1.564-.006l-3.11 6.145c-.865 1.709-.868 4.477-.007 6.186l3.124 6.201c.86 1.709 1.559 1.662 1.559-.106s1.477-3.201 3.295-3.201c1.82 0 4.958.041 6.478-1.122 1.834-1.402 4.276-4.457 6.837-11.037.192-.5.295-.883.324-1.17.603-2.38-.513-4.567-.513-4.567zM20.372 35.873l-5.938.062c-.922.01-2.132.072-3.316.25.545-.924 1.094-1.843 1.585-2.662.984-1.641 2.995-2.269 4.477-1.41 1.48.861 1.838.256.797-1.35l-3.763-5.801c-1.042-1.605-3.437-2.996-5.347-3.104l-6.934-.395c-1.911-.109-2.222.522-.694 1.409 1.527.888 2.03 2.883 1.124 4.457-.907 1.572-2.549 4.248-2.345 6.15.247 2.308 1.64 5.981 6.167 11.496.055.066.101.111.152.172 1.707 2.524 4.919 2.692 4.919 2.692l9.098.056a3.448 3.448 0 0 0 3.471-3.444l.007-5.147a3.415 3.415 0 0 0-3.46-3.431zM42.325 9.605c-1.535.881-3.511.315-4.413-1.264-.901-1.579-2.532-4.226-4.357-4.806-2.146-.684-5.971-1.137-12.787-.479-.145.014-.261.033-.386.051-2.978.264-4.684 2.885-4.684 2.885l-4.611 7.855a3.442 3.442 0 0 0 1.241 4.727l4.453 2.586c1.655.96 3.76.388 4.701-1.278l2.921-5.173c.46-.814 1.021-1.91 1.466-3.04.505.88 1.007 1.755 1.454 2.54.949 1.661.516 3.699-.969 4.548-1.483.85-1.136 1.46.775 1.361l6.892-.354c1.911-.098 4.313-1.474 5.366-3.072l3.812-5.789c1.055-1.597.662-2.179-.874-1.298z"/></svg>